<svg width="41" height="41" viewBox="0 0 41 41" fill="none" xmlns="http://www.w3.org/2000/svg">
<path d="M20.694 10.4149C19.7058 10.5083 19.1397 10.608 18.4744 10.8044C16.9681 11.2486 15.6472 12.0019 14.499 13.0642C13.2677 14.2038 12.3466 15.617 11.8093 17.1879C11.5854 17.8478 11.4479 18.4562 11.3231 19.3447C11.2656 19.7535 11.2464 20.7418 11.288 21.2118C11.4447 23.0016 11.9276 24.4437 12.8679 25.9278C13.4692 26.8774 14.3071 27.782 15.2154 28.4773C15.5001 28.6897 16.047 29.0664 16.0789 29.0664C16.0885 29.0664 16.1365 29.0953 16.1845 29.1308C16.3188 29.2273 16.9073 29.5331 17.2623 29.6909C17.8796 29.9645 18.7015 30.222 19.3316 30.3411C19.4723 30.3669 19.6162 30.3959 19.6482 30.4055C19.6994 30.4216 19.7026 30.2059 19.7026 26.1724V21.92L18.9126 21.9135L18.1194 21.9039V20.5197V19.1354L18.9126 19.1258L19.7026 19.1194V18.7556C19.7026 17.3038 20.0896 15.9904 20.7932 15.0633C21.5448 14.075 22.7473 13.4666 24.1705 13.3572C24.6023 13.325 25.501 13.3572 25.8592 13.4215C26.2686 13.4956 26.534 13.56 26.5692 13.5954C26.6012 13.6243 26.6012 13.7402 26.5756 14.1136C26.5596 14.3808 26.5245 15.015 26.5021 15.5236C26.4765 16.0355 26.4477 16.4604 26.4381 16.47C26.4285 16.4797 26.2718 16.4572 26.0895 16.4185C25.7057 16.338 24.9925 16.3155 24.759 16.3799C24.1226 16.5569 23.6876 17.0784 23.5405 17.8478C23.5181 17.954 23.4957 18.2824 23.4861 18.5785L23.4669 19.1194L24.6791 19.1258L25.8912 19.1354L25.9008 20.5261L25.9072 21.92H24.7078H23.5085V26.108C23.5085 29.8196 23.5149 30.2929 23.5565 30.2768C23.5821 30.2671 23.7452 30.222 23.9179 30.1737C24.4392 30.0321 24.9701 29.8325 25.5874 29.5492C25.7889 29.4559 25.9776 29.3625 26.0031 29.34C26.0287 29.3207 26.1535 29.2466 26.275 29.179C27.6215 28.4387 28.9871 27.0898 29.8506 25.6477C29.9946 25.4095 30.4487 24.5242 30.4487 24.4856C30.4487 24.4727 30.5031 24.3311 30.5734 24.1669C30.8389 23.5263 31.0628 22.6571 31.1875 21.7912C31.2739 21.186 31.2931 19.8855 31.2227 19.3769C30.9412 17.3392 30.3464 15.8552 29.2046 14.339C28.4658 13.3539 27.2952 12.3238 26.227 11.7186C25.082 11.0684 23.726 10.6209 22.4531 10.4728C22.0245 10.4246 20.9691 10.3891 20.694 10.4149Z" fill="#ED1C24"/>
<rect x="1.13086" y="1" width="39" height="39" rx="19.5" stroke="black" stroke-opacity="0.15"/>
</svg>
