<svg width="57" height="57" viewBox="0 0 57 57" fill="none" xmlns="http://www.w3.org/2000/svg">
<path d="M28.14 56.28C43.6813 56.28 56.28 43.6813 56.28 28.14C56.28 12.5987 43.6813 0 28.14 0C12.5987 0 0 12.5987 0 28.14C0 43.6813 12.5987 56.28 28.14 56.28Z" fill="#D9D9D8"/>
<path d="M24.9042 40H29.7494V30.3023H34.1129L34.5945 25.4864H29.7494V23.0565C29.7494 22.7354 29.8734 22.4289 30.1069 22.2027C30.3331 21.9765 30.6396 21.8452 30.9607 21.8452H34.5945V17H30.9607C29.3553 17 27.8157 17.6348 26.6773 18.7732C25.539 19.9115 24.9042 21.4511 24.9042 23.0565V25.4864H22.4816L22 30.3023H24.9042V40Z" fill="white"/>
</svg>
