<svg width="40" height="41" viewBox="0 0 40 41" fill="none" xmlns="http://www.w3.org/2000/svg">
<path d="M20.002 15.3315C19.2383 15.3351 18.5214 15.4748 17.8513 15.7505C17.1775 16.0298 16.5898 16.4093 16.0881 16.8892C15.5865 17.369 15.1916 17.9294 14.9033 18.5703C14.6113 19.2148 14.4653 19.9023 14.4653 20.6328C14.4653 20.6364 14.4653 20.6391 14.4653 20.6409C14.4653 20.6427 14.4653 20.6453 14.4653 20.6489C14.4653 21.3794 14.6095 22.0651 14.8977 22.7061C15.186 23.347 15.58 23.9065 16.0797 24.3845C16.5795 24.8625 17.1644 25.2412 17.8345 25.5205C18.5083 25.7962 19.2252 25.9341 19.9851 25.9341C19.9889 25.9341 19.9926 25.9341 19.9963 25.9341C20.0001 25.9341 20.0038 25.9341 20.0076 25.9341H20.002C20.7694 25.9341 21.4881 25.7944 22.1582 25.5151C22.832 25.2358 23.4198 24.8563 23.9214 24.3765C24.423 23.8966 24.818 23.3363 25.1062 22.6953C25.3982 22.0508 25.5442 21.3633 25.5442 20.6328C25.5442 19.9095 25.3982 19.2256 25.1062 18.5811C24.8142 17.9401 24.4165 17.3788 23.913 16.8972C23.4095 16.4156 22.8208 16.0334 22.147 15.7505C21.4769 15.4712 20.7619 15.3315 20.002 15.3315ZM20.002 24.0273C19.5153 24.0273 19.0567 23.9378 18.6262 23.7588C18.1957 23.5798 17.8204 23.3372 17.5004 23.031C17.1803 22.7249 16.9267 22.3659 16.7395 21.9541C16.5523 21.5423 16.4569 21.1019 16.4531 20.6328C16.4569 20.1637 16.5523 19.7233 16.7395 19.3115C16.9267 18.9033 17.1803 18.5452 17.5004 18.2373C17.8204 17.9294 18.1957 17.6859 18.6262 17.5068C19.0567 17.3278 19.5153 17.2383 20.002 17.2383C20.4924 17.2383 20.9528 17.3278 21.3833 17.5068C21.8138 17.6859 22.1891 17.9294 22.5092 18.2373C22.8292 18.5452 23.0828 18.9033 23.27 19.3115C23.4572 19.7233 23.5527 20.1637 23.5564 20.6328C23.5527 21.1019 23.4572 21.5423 23.27 21.9541C23.0828 22.3659 22.8292 22.7249 22.5092 23.031C22.1891 23.3372 21.8138 23.5798 21.3833 23.7588C20.9528 23.9378 20.4942 24.0273 20.0076 24.0273H20.002ZM25.7632 16.4111C25.591 16.4111 25.4281 16.3789 25.2747 16.3145C25.1212 16.2536 24.9873 16.1685 24.8732 16.0593C24.759 15.9501 24.6701 15.8221 24.6064 15.6753C24.5391 15.5285 24.5054 15.3727 24.5054 15.208C24.5054 15.0433 24.5391 14.8875 24.6064 14.7407C24.6701 14.5939 24.759 14.4668 24.8732 14.3594C24.9873 14.252 25.1212 14.166 25.2747 14.1016C25.4281 14.0371 25.591 14.0049 25.7632 14.0049C25.9354 14.0049 26.0982 14.0371 26.2517 14.1016C26.4052 14.166 26.5381 14.252 26.6504 14.3594C26.7627 14.4668 26.8525 14.5939 26.9199 14.7407C26.9836 14.8875 27.0154 15.0433 27.0154 15.208C27.0154 15.3727 26.9836 15.5285 26.9199 15.6753C26.8525 15.8221 26.7627 15.9501 26.6504 16.0593C26.5381 16.1685 26.4052 16.2536 26.2517 16.3145C26.0982 16.3789 25.9354 16.4111 25.7632 16.4111ZM29.0088 12.1035C28.728 11.8242 28.4192 11.5789 28.0823 11.3677C27.7416 11.1528 27.3794 10.9747 26.9957 10.8333C26.612 10.6918 26.2068 10.5853 25.78 10.5137C25.357 10.4421 24.919 10.4062 24.4661 10.4062H15.5435C14.6038 10.4062 13.7485 10.5495 12.9773 10.8359C12.2024 11.1224 11.5407 11.5288 10.9923 12.0552C10.4439 12.5815 10.0199 13.2135 9.72046 13.9512C9.41724 14.6888 9.26562 15.5088 9.26562 16.4111V24.8975C9.26562 25.3451 9.30493 25.7747 9.38354 26.1865C9.45841 26.5983 9.57166 26.9904 9.72327 27.3628C9.87488 27.7352 10.063 28.0861 10.2876 28.4155C10.516 28.745 10.7817 29.0493 11.085 29.3286C11.377 29.5972 11.6933 29.8335 12.0339 30.0376C12.3708 30.2381 12.7293 30.4055 13.1093 30.5398C13.4892 30.6741 13.887 30.7752 14.3025 30.8433C14.7143 30.9113 15.1429 30.9453 15.5884 30.9453H24.4211C24.8853 30.9453 25.3308 30.9095 25.7576 30.8379C26.1843 30.7663 26.5886 30.6624 26.9705 30.5264C27.3523 30.3903 27.7098 30.222 28.043 30.0215C28.3761 29.8174 28.6831 29.5864 28.9639 29.3286C29.2559 29.0601 29.5142 28.7646 29.7388 28.4424C29.9596 28.1165 30.144 27.7683 30.2919 27.3977C30.4397 27.0271 30.5511 26.6359 30.626 26.2241C30.7046 25.8123 30.7439 25.3844 30.7439 24.9404V16.4111C30.7439 15.9743 30.7065 15.5553 30.6316 15.1543C30.5567 14.7533 30.4454 14.371 30.2975 14.0076C30.1496 13.6441 29.969 13.3031 29.7556 12.9844C29.5385 12.6657 29.2896 12.3721 29.0088 12.1035ZM28.8347 24.9404C28.8347 25.2627 28.8066 25.5671 28.7505 25.8535C28.6906 26.1436 28.6073 26.4157 28.5006 26.6699C28.3939 26.9242 28.262 27.1587 28.1047 27.3735C27.9513 27.592 27.7772 27.7889 27.5825 27.9644C27.3879 28.1398 27.1745 28.2938 26.9424 28.4263C26.7103 28.5623 26.4613 28.6751 26.1956 28.7646C25.9298 28.8542 25.649 28.9222 25.3533 28.9688C25.0575 29.0153 24.7468 29.0386 24.4211 29.0386H15.5884C15.2627 29.0386 14.952 29.0153 14.6562 28.9688C14.3605 28.9222 14.0798 28.8542 13.814 28.7646C13.5482 28.6751 13.2992 28.5623 13.0671 28.4263C12.835 28.2938 12.6217 28.1398 12.427 27.9644C12.2323 27.7782 12.062 27.5741 11.916 27.3521C11.77 27.13 11.6484 26.891 11.551 26.635C11.4537 26.379 11.3807 26.106 11.332 25.8159C11.2834 25.5259 11.259 25.2197 11.259 24.8975V16.4111C11.259 16.0996 11.2834 15.8024 11.332 15.5195C11.3807 15.2331 11.4537 14.9636 11.551 14.7112C11.6484 14.4587 11.77 14.2215 11.916 13.9995C12.062 13.7775 12.2323 13.5734 12.427 13.3872C12.6104 13.2118 12.8182 13.056 13.0503 12.9199C13.2786 12.7874 13.5276 12.6755 13.7971 12.5842C14.0667 12.4929 14.3512 12.424 14.6506 12.3774C14.9501 12.3309 15.2627 12.3076 15.5884 12.3076H24.5054C24.8311 12.3076 25.1418 12.3309 25.4375 12.3774C25.737 12.424 26.0187 12.4938 26.2826 12.5869C26.5465 12.68 26.7945 12.7964 27.0266 12.936C27.2587 13.0757 27.4721 13.2404 27.6667 13.4302C27.8502 13.6164 28.0149 13.8187 28.1609 14.0371C28.3069 14.2591 28.4295 14.4954 28.5287 14.7461C28.6279 14.9967 28.7037 15.2617 28.7561 15.541C28.8085 15.8203 28.8347 16.1104 28.8347 16.4111V24.9404Z" fill="#ED1C24"/>
<rect x="0.5" y="1" width="39" height="39" rx="19.5" stroke="black" stroke-opacity="0.15"/>
</svg>
