<svg width="57" height="57" viewBox="0 0 57 57" fill="none" xmlns="http://www.w3.org/2000/svg">
<path d="M28.14 56.28C43.6813 56.28 56.28 43.6813 56.28 28.14C56.28 12.5987 43.6813 0 28.14 0C12.5987 0 0 12.5987 0 28.14C0 43.6813 12.5987 56.28 28.14 56.28Z" fill="#D9D9D8"/>
<path d="M35.3495 22.55C36.2495 22.55 36.9695 21.82 36.9695 20.93C36.9695 20.04 36.2395 19.31 35.3495 19.31C34.4595 19.31 33.7295 20.04 33.7295 20.93C33.7295 21.82 34.4595 22.55 35.3495 22.55Z" fill="white"/>
<path d="M28.3203 21.39C26.9503 21.39 25.6102 21.8 24.4702 22.56C23.3302 23.32 22.4402 24.41 21.9202 25.67C21.3902 26.94 21.2602 28.33 21.5302 29.68C21.8002 31.03 22.4603 32.26 23.4303 33.23C24.4003 34.2 25.6402 34.86 26.9802 35.13C28.3302 35.4 29.7202 35.26 30.9902 34.74C32.2602 34.21 33.3402 33.33 34.1002 32.18C34.8602 31.04 35.2702 29.7 35.2702 28.33C35.2702 26.49 34.5402 24.73 33.2402 23.42C31.9402 22.12 30.1702 21.39 28.3302 21.39H28.3203ZM28.3203 32.83C27.4303 32.83 26.5603 32.57 25.8203 32.07C25.0803 31.58 24.5002 30.87 24.1602 30.05C23.8202 29.23 23.7303 28.32 23.9003 27.45C24.0703 26.58 24.5002 25.77 25.1302 25.14C25.7602 24.51 26.5602 24.08 27.4402 23.91C28.3102 23.74 29.2203 23.83 30.0403 24.17C30.8603 24.51 31.5702 25.09 32.0602 25.83C32.5502 26.57 32.8203 27.44 32.8203 28.33C32.8203 29.52 32.3502 30.67 31.5002 31.51C30.6502 32.35 29.5103 32.83 28.3203 32.83Z" fill="white"/>
<path d="M28.1399 17.07C31.7499 17.07 32.1699 17.08 33.5999 17.15C34.4599 17.16 35.2999 17.32 36.1099 17.61C36.6899 17.83 37.2199 18.18 37.6599 18.62C38.0999 19.06 38.4499 19.59 38.6699 20.17C38.9699 20.97 39.1199 21.82 39.1299 22.68C39.1999 24.1 39.2099 24.53 39.2099 28.14C39.2099 31.75 39.1999 32.17 39.1299 33.6C39.1199 34.46 38.9599 35.3 38.6699 36.11C38.4499 36.69 38.0999 37.22 37.6599 37.66C37.2199 38.1 36.6899 38.45 36.1099 38.67C35.3099 38.97 34.4599 39.12 33.5999 39.13C32.1799 39.2 31.7499 39.21 28.1399 39.21C24.5299 39.21 24.1099 39.2 22.6799 39.13C21.8199 39.12 20.9799 38.96 20.1699 38.67C19.5899 38.45 19.0599 38.1 18.6199 37.66C18.1799 37.22 17.8299 36.69 17.6099 36.11C17.3099 35.31 17.1599 34.46 17.1499 33.6C17.0799 32.18 17.0699 31.75 17.0699 28.14C17.0699 24.53 17.0799 24.11 17.1499 22.68C17.1599 21.82 17.3199 20.98 17.6099 20.17C17.8299 19.59 18.1799 19.06 18.6199 18.62C19.0599 18.18 19.5899 17.83 20.1699 17.61C20.9699 17.31 21.8199 17.16 22.6799 17.15C24.0999 17.08 24.5299 17.07 28.1399 17.07ZM28.1399 14.64C24.4699 14.64 24.0099 14.66 22.5699 14.72C21.4499 14.74 20.3399 14.96 19.2899 15.35C18.3899 15.7 17.5799 16.23 16.8999 16.91C16.2199 17.59 15.6899 18.41 15.3399 19.3C14.9499 20.35 14.7299 21.46 14.7099 22.58C14.6399 24.02 14.6299 24.48 14.6299 28.15C14.6299 31.82 14.6499 32.28 14.7099 33.72C14.7299 34.84 14.9499 35.95 15.3399 37C15.6899 37.9 16.2199 38.71 16.8999 39.39C17.5799 40.07 18.3999 40.6 19.2899 40.95C20.3399 41.34 21.4499 41.56 22.5699 41.58C24.0099 41.65 24.4699 41.66 28.1399 41.66C31.8099 41.66 32.2699 41.64 33.7099 41.58C34.8299 41.56 35.9399 41.35 36.9899 40.95C37.8899 40.6 38.6999 40.07 39.3799 39.39C40.0599 38.71 40.5899 37.89 40.9399 37C41.3299 35.95 41.5399 34.84 41.5699 33.72C41.6399 32.28 41.6499 31.82 41.6499 28.15C41.6499 24.48 41.6299 24.02 41.5699 22.58C41.5499 21.46 41.3299 20.35 40.9399 19.3C40.5899 18.4 40.0599 17.59 39.3799 16.91C38.6999 16.23 37.8799 15.7 36.9899 15.35C35.9399 14.96 34.8299 14.75 33.7099 14.72C32.2699 14.65 31.8099 14.64 28.1399 14.64Z" fill="white"/>
</svg>
