<svg width="57" height="57" viewBox="0 0 57 57" fill="none" xmlns="http://www.w3.org/2000/svg">
<path d="M28.14 56.28C43.6813 56.28 56.28 43.6813 56.28 28.14C56.28 12.5987 43.6813 0 28.14 0C12.5987 0 0 12.5987 0 28.14C0 43.6813 12.5987 56.28 28.14 56.28Z" fill="#D9D9D8"/>
<path d="M37.4444 17C38.1222 17 38.7722 17.2692 39.2515 17.7485C39.7308 18.2278 40 18.8778 40 19.5556V37.4444C40 38.1222 39.7308 38.7722 39.2515 39.2515C38.7722 39.7308 38.1222 40 37.4444 40H19.5556C18.8778 40 18.2278 39.7308 17.7485 39.2515C17.2692 38.7722 17 38.1222 17 37.4444V19.5556C17 18.8778 17.2692 18.2278 17.7485 17.7485C18.2278 17.2692 18.8778 17 19.5556 17H37.4444ZM36.8056 36.8056V30.0333C36.8056 28.9286 36.3667 27.869 35.5855 27.0878C34.8043 26.3066 33.7448 25.8678 32.64 25.8678C31.5539 25.8678 30.2889 26.5322 29.6756 27.5289V26.1106H26.1106V36.8056H29.6756V30.5061C29.6756 29.5222 30.4678 28.7172 31.4517 28.7172C31.9261 28.7172 32.3811 28.9057 32.7166 29.2412C33.0521 29.5767 33.2406 30.0317 33.2406 30.5061V36.8056H36.8056ZM21.9578 24.1044C22.5271 24.1044 23.0731 23.8783 23.4757 23.4757C23.8783 23.0731 24.1044 22.5271 24.1044 21.9578C24.1044 20.7694 23.1461 19.7983 21.9578 19.7983C21.3851 19.7983 20.8358 20.0258 20.4308 20.4308C20.0258 20.8358 19.7983 21.3851 19.7983 21.9578C19.7983 23.1461 20.7694 24.1044 21.9578 24.1044ZM23.7339 36.8056V26.1106H20.1944V36.8056H23.7339Z" fill="white"/>
</svg>
