<svg width="41" height="41" viewBox="0 0 41 41" fill="none" xmlns="http://www.w3.org/2000/svg">
<g clip-path="url(#clip0_282_1535)">
<path d="M30.0654 16.4619C30.0654 16.4619 30.0752 16.5547 30.0947 16.7402C30.1175 16.929 30.1411 17.1756 30.1655 17.48C30.1899 17.7843 30.2135 18.1318 30.2363 18.5225C30.2559 18.9131 30.2656 19.3118 30.2656 19.7188V21.2471C30.2656 21.6572 30.2559 22.0576 30.2363 22.4482C30.2135 22.8389 30.1899 23.1864 30.1655 23.4907C30.1411 23.7951 30.1175 24.0417 30.0947 24.2305C30.0752 24.416 30.0654 24.5088 30.0654 24.5088C30.0654 24.5088 30.0524 24.5837 30.0264 24.7334C30.0003 24.8864 29.9564 25.0687 29.8945 25.2803C29.8327 25.4919 29.7497 25.7116 29.6455 25.9395C29.5446 26.1673 29.4193 26.3577 29.2695 26.5107C29.0807 26.7093 28.8887 26.8639 28.6934 26.9746C28.498 27.082 28.3109 27.1626 28.1318 27.2163C27.9528 27.27 27.7884 27.305 27.6387 27.3213C27.4889 27.3376 27.3652 27.3506 27.2676 27.3604C26.5677 27.4124 25.8092 27.4531 24.9922 27.4824C24.1751 27.5085 23.4167 27.5288 22.7168 27.5435C22.0169 27.5581 21.4326 27.5654 20.9639 27.5654C20.4984 27.5687 20.2656 27.5703 20.2656 27.5703C20.2656 27.5703 19.9857 27.5671 19.4258 27.5605C18.8691 27.554 18.2157 27.5435 17.4653 27.5288C16.715 27.5142 15.9606 27.4938 15.2021 27.4678C14.4437 27.4417 13.8643 27.4092 13.4639 27.3701C13.3532 27.3473 13.2116 27.3278 13.0391 27.3115C12.8665 27.2952 12.6802 27.2611 12.48 27.209C12.2798 27.1569 12.0739 27.0771 11.8623 26.9697C11.6507 26.8623 11.4505 26.7077 11.2617 26.5059C11.112 26.3529 10.985 26.1641 10.8809 25.9395C10.7799 25.7116 10.6986 25.4919 10.6367 25.2803C10.5749 25.0687 10.5309 24.8864 10.5049 24.7334C10.4788 24.5837 10.4658 24.5088 10.4658 24.5088C10.4658 24.5088 10.4561 24.416 10.4365 24.2305C10.4137 24.0417 10.3901 23.7951 10.3657 23.4907C10.3413 23.1864 10.3177 22.8389 10.2949 22.4482C10.2754 22.0576 10.2656 21.6572 10.2656 21.2471V19.7188C10.2656 19.3118 10.2754 18.9131 10.2949 18.5225C10.3177 18.1351 10.3413 17.7884 10.3657 17.4824C10.3901 17.1764 10.4137 16.929 10.4365 16.7402C10.4561 16.5547 10.4658 16.4619 10.4658 16.4619C10.4658 16.4619 10.4788 16.387 10.5049 16.2373C10.5309 16.0843 10.5749 15.902 10.6367 15.6904C10.6986 15.4788 10.7799 15.2591 10.8809 15.0312C10.985 14.8034 11.112 14.613 11.2617 14.46C11.4505 14.2614 11.6426 14.1068 11.8379 13.9961C12.0365 13.8854 12.2244 13.804 12.4019 13.752C12.5793 13.6999 12.7428 13.6657 12.8926 13.6494C13.0423 13.6331 13.166 13.6201 13.2637 13.6104C13.9635 13.5583 14.722 13.5192 15.5391 13.4932C16.3561 13.4639 17.1146 13.4427 17.8145 13.4297C18.5143 13.4167 19.097 13.4102 19.5625 13.4102C20.028 13.4069 20.2607 13.4053 20.2607 13.4053H20.2705C20.2705 13.4053 20.5033 13.4069 20.9688 13.4102C21.4342 13.4102 22.0169 13.4167 22.7168 13.4297C23.4167 13.4427 24.1751 13.4639 24.9922 13.4932C25.8092 13.5192 26.5677 13.5583 27.2676 13.6104C27.3652 13.6201 27.4889 13.6331 27.6387 13.6494C27.7884 13.6657 27.952 13.6999 28.1294 13.752C28.3068 13.804 28.4948 13.8854 28.6934 13.9961C28.8887 14.1068 29.0807 14.2614 29.2695 14.46C29.4193 14.613 29.5462 14.8034 29.6504 15.0312C29.7513 15.2591 29.8327 15.4788 29.8945 15.6904C29.9564 15.902 30.0003 16.0843 30.0264 16.2373C30.0524 16.387 30.0654 16.4619 30.0654 16.4619ZM18.2002 23.1025L23.6055 20.2803L18.2002 17.4434V23.1025Z" fill="#ED1C24"/>
</g>
<rect x="0.869141" y="1" width="39" height="39" rx="19.5" stroke="black" stroke-opacity="0.15"/>
<defs>
<clipPath id="clip0_282_1535">
<rect width="20" height="20" fill="white" transform="matrix(1 0 0 -1 10.2656 30.4062)"/>
</clipPath>
</defs>
</svg>
